<svg xmlns="http://www.w3.org/2000/svg" xmlns:xlink="http://www.w3.org/1999/xlink" id="Layer_1" x="0" y="0" class="illustration" enable-background="new 0 0 140 75" version="1.1" viewBox="0 0 140 75" xml:space="preserve"><path fill="#FFF" stroke="#D9D9D9" d="M132.4,68.6H43.1c-0.5,0-1-0.4-1-1V7.1c0-0.6,0.5-1,1-1h89.4c0.6,0,1,0.4,1,1v60.5 C133.4,68.2,133,68.6,132.4,68.6z"/><line x1="42.1" x2="133.4" y1="16.4" y2="16.4" fill="none" stroke="#D9D9D9"/><circle cx="47" cy="11.6" r="1.5" fill="#df4949"/><circle cx="52.5" cy="11.6" r="1.5" fill="#F4DD33"/><circle cx="58" cy="11.6" r="1.5" fill="#49df5c"/><g><g><path fill="none" stroke="#D9D9D9" stroke-linecap="round" stroke-linejoin="round" d="M64.2,44.1c-12.7-11.9-32.7-11.7-45.1,0.8"/><g><polygon fill="#D9D9D9" points="64.4 38.9 63.4 39 63.9 43.9 58.9 44 59 45 65 44.9"/></g></g></g><rect width="30" height="25" x="4.8" y="23.9" fill="#FFF" stroke="#D9D9D9" stroke-linecap="round" stroke-linejoin="round"/><path fill="#FFF" stroke="#D9D9D9" stroke-linecap="round" stroke-linejoin="round" d="M4.8,48.9c0,0,0-12.5,15-12.5 s15,12.5,15,12.5H4.8z"/><circle cx="28.7" cy="30.8" r="2.5" fill="#FFF" stroke="#D9D9D9" stroke-linecap="round" stroke-linejoin="round"/></svg>